0
SECTION
2
HEADER
9
$INSUNITS
70
4
9
$ACADVER
1
AC1014
9
$HANDSEED
5
FFFF
0
ENDSEC
0
SECTION
2
TABLES
0
TABLE
2
VPORT
5
8
100
AcDbSymbolTable
0
ENDTAB
0
TABLE
2
LTYPE
5
5
100
AcDbSymbolTable
0
LTYPE
5
14
100
AcDbSymbolTableRecord
100
AcDbLinetypeTableRecord
2
BYBLOCK
70
0
0
LTYPE
5
15
100
AcDbSymbolTableRecord
100
AcDbLinetypeTableRecord
2
BYLAYER
70
0
0
ENDTAB
0
TABLE
2
LAYER
5
2
100
AcDbSymbolTable
70
2
0
LAYER
5
50
100
AcDbSymbolTableRecord
100
AcDbLayerTableRecord
2
0
70
0
6
CONTINUOUS
0
ENDTAB
0
TABLE
2
STYLE
5
3
100
AcDbSymbolTable
70
1
0
STYLE
5
11
100
AcDbSymbolTableRecord
100
AcDbTextStyleTableRecord
2
STANDARD
70
0
0
ENDTAB
0
TABLE
2
VIEW
5
6
100
AcDbSymbolTable
70
0
0
ENDTAB
0
TABLE
2
UCS
5
7
100
AcDbSymbolTable
70
0
0
ENDTAB
0
TABLE
2
APPID
5
9
100
AcDbSymbolTable
70
2
0
APPID
5
12
100
AcDbSymbolTableRecord
100
AcDbRegAppTableRecord
2
ACAD
70
0
0
ENDTAB
0
TABLE
2
DIMSTYLE
5
A
100
AcDbSymbolTable
70
1
0
ENDTAB
0
TABLE
2
BLOCK_RECORD
5
1
100
AcDbSymbolTable
70
1
0
BLOCK_RECORD
5
1F
100
AcDbSymbolTableRecord
100
AcDbBlockTableRecord
2
*MODEL_SPACE
0
BLOCK_RECORD
5
1B
100
AcDbSymbolTableRecord
100
AcDbBlockTableRecord
2
*PAPER_SPACE
0
ENDTAB
0
ENDSEC
0
SECTION
2
BLOCKS
0
BLOCK
5
20
100
AcDbEntity
100
AcDbBlockBegin
2
*MODEL_SPACE
0
ENDBLK
5
21
100
AcDbEntity
100
AcDbBlockEnd
0
BLOCK
5
1C
100
AcDbEntity
100
AcDbBlockBegin
2
*PAPER_SPACE
0
ENDBLK
5
1D
100
AcDbEntity
100
AcDbBlockEnd
0
ENDSEC
0
SECTION
2
ENTITIES
0
LWPOLYLINE
5
100
100
AcDbEntity
8
0
100
AcDbPolyline
90
40
70
1
43
0.0
10
250
20
150
10
239
20
150
10
239
20
125
10
250
20
125
10
250
20
100
10
239
20
100
10
239
20
75
10
250
20
75
10
250
20
50
10
239
20
50
10
239
20
25
10
250
20
25
10
250
20
0
10
-7.7715611723760958e-15
20
0
10
-8.8817841970012523e-15
20
25
10
11.000000000000014
20
25
10
11.000000000000014
20
50
10
-7.7715611723760958e-15
20
50
10
-8.8817841970012523e-15
20
75
10
11.000000000000014
20
75
10
11.000000000000014
20
100
10
-7.7715611723760958e-15
20
100
10
-8.8817841970012523e-15
20
125
10
11.000000000000014
20
125
10
11.000000000000014
20
150
10
-7.7715611723760958e-15
20
150
10
-8.8817841970012523e-15
20
175
10
11.000000000000014
20
175
10
11.000000000000014
20
200
10
-7.7715611723760958e-15
20
200
10
-8.8817841970012523e-15
20
225
10
11.000000000000014
20
225
10
11.000000000000014
20
250
10
239
20
250
10
239
20
225
10
250
20
225
10
250
20
200
10
239
20
200
10
239
20
175
10
250
20
175
0
LWPOLYLINE
5
101
100
AcDbEntity
8
0
100
AcDbPolyline
90
4
70
1
43
0.0
10
80.282051364220933
20
18
10
126.97303410706348
20
18
10
126.97303410706348
20
42.653268159184414
10
80.282051364220933
20
42.653268159184414
0
LWPOLYLINE
5
102
100
AcDbEntity
8
0
100
AcDbPolyline
90
4
70
1
43
0.0
10
198.40411452691907
20
92.882764084260273
10
198.40411452691907
20
125.98917723550485
10
147.39914836193847
20
125.98917723550485
10
147.39914836193847
20
92.882764084260273
0
LWPOLYLINE
5
103
100
AcDbEntity
8
0
100
AcDbPolyline
90
4
70
1
43
0.0
10
112.63632016293165
20
232
10
112.63632016293165
20
165.6682068413383
10
155.62169496972504
20
165.6682068413383
10
155.62169496972504
20
232
0
LWPOLYLINE
5
104
100
AcDbEntity
8
0
100
AcDbPolyline
90
4
70
1
43
0.0
10
198.40411452691907
20
131.98917723550485
10
198.40411452691907
20
159.6682068413383
10
112.63632016293165
20
159.6682068413383
10
112.63632016293165
20
131.98917723550485
0
LWPOLYLINE
5
105
100
AcDbEntity
8
0
100
AcDbPolyline
90
4
70
1
43
0.0
10
18.000000000000007
20
92.882764084260273
10
141.39914836193847
20
92.882764084260273
10
141.39914836193847
20
125.98917723550485
10
18
20
125.98917723550485
0
LWPOLYLINE
5
106
100
AcDbEntity
8
0
100
AcDbPolyline
90
4
70
1
43
0.0
10
232
20
18
10
232
20
42.653268159184421
10
132.97303410706348
20
42.653268159184414
10
132.97303410706348
20
18
0
LWPOLYLINE
5
107
100
AcDbEntity
8
0
100
AcDbPolyline
90
4
70
1
43
0.0
10
18
20
18
10
74.282051364220933
20
18
10
74.282051364220933
20
86.882764084260273
10
18
20
86.882764084260273
0
LWPOLYLINE
5
108
100
AcDbEntity
8
0
100
AcDbPolyline
90
4
70
1
43
0.0
10
232
20
92.882764084260273
10
232
20
159.6682068413383
10
204.40411452691907
20
159.6682068413383
10
204.40411452691907
20
92.882764084260273
0
LWPOLYLINE
5
109
100
AcDbEntity
8
0
100
AcDbPolyline
90
4
70
1
43
0.0
10
18.000000000000007
20
131.98917723550485
10
106.63632016293165
20
131.98917723550485
10
106.63632016293165
20
232
10
18
20
232
0
LWPOLYLINE
5
110
100
AcDbEntity
8
0
100
AcDbPolyline
90
4
70
1
43
0.0
10
232
20
232
10
161.62169496972507
20
232
10
161.62169496972507
20
165.6682068413383
10
232
20
165.6682068413383
0
LWPOLYLINE
5
111
100
AcDbEntity
8
0
100
AcDbPolyline
90
4
70
1
43
0.0
10
165.95161143560264
20
48.653268159184421
10
165.95161143560264
20
86.882764084260273
10
80.282051364220933
20
86.882764084260273
10
80.282051364220933
20
48.653268159184428
0
LWPOLYLINE
5
112
100
AcDbEntity
8
0
100
AcDbPolyline
90
4
70
1
43
0.0
10
171.95161143560267
20
48.653268159184407
10
232
20
48.653268159184407
10
232
20
86.882764084260273
10
171.95161143560267
20
86.882764084260273
0
ENDSEC
0
SECTION
2
OBJECTS
0
DICTIONARY
5
C
100
AcDbDictionary
3
ACAD_GROUP
350
D
3
ACAD_MLINESTYLE
350
17
0
DICTIONARY
5
D
100
AcDbDictionary
0
DICTIONARY
5
1A
330
C
100
AcDbDictionary
0
DICTIONARY
5
17
100
AcDbDictionary
0
ENDSEC
0
EOF
