0
SECTION
2
HEADER
9
$INSUNITS
70
4
9
$ACADVER
1
AC1014
9
$HANDSEED
5
FFFF
0
ENDSEC
0
SECTION
2
TABLES
0
TABLE
2
VPORT
5
8
100
AcDbSymbolTable
0
ENDTAB
0
TABLE
2
LTYPE
5
5
100
AcDbSymbolTable
0
LTYPE
5
14
100
AcDbSymbolTableRecord
100
AcDbLinetypeTableRecord
2
BYBLOCK
70
0
0
LTYPE
5
15
100
AcDbSymbolTableRecord
100
AcDbLinetypeTableRecord
2
BYLAYER
70
0
0
ENDTAB
0
TABLE
2
LAYER
5
2
100
AcDbSymbolTable
70
2
0
LAYER
5
50
100
AcDbSymbolTableRecord
100
AcDbLayerTableRecord
2
0
70
0
6
CONTINUOUS
0
ENDTAB
0
TABLE
2
STYLE
5
3
100
AcDbSymbolTable
70
1
0
STYLE
5
11
100
AcDbSymbolTableRecord
100
AcDbTextStyleTableRecord
2
STANDARD
70
0
0
ENDTAB
0
TABLE
2
VIEW
5
6
100
AcDbSymbolTable
70
0
0
ENDTAB
0
TABLE
2
UCS
5
7
100
AcDbSymbolTable
70
0
0
ENDTAB
0
TABLE
2
APPID
5
9
100
AcDbSymbolTable
70
2
0
APPID
5
12
100
AcDbSymbolTableRecord
100
AcDbRegAppTableRecord
2
ACAD
70
0
0
ENDTAB
0
TABLE
2
DIMSTYLE
5
A
100
AcDbSymbolTable
70
1
0
ENDTAB
0
TABLE
2
BLOCK_RECORD
5
1
100
AcDbSymbolTable
70
1
0
BLOCK_RECORD
5
1F
100
AcDbSymbolTableRecord
100
AcDbBlockTableRecord
2
*MODEL_SPACE
0
BLOCK_RECORD
5
1B
100
AcDbSymbolTableRecord
100
AcDbBlockTableRecord
2
*PAPER_SPACE
0
ENDTAB
0
ENDSEC
0
SECTION
2
BLOCKS
0
BLOCK
5
20
100
AcDbEntity
100
AcDbBlockBegin
2
*MODEL_SPACE
0
ENDBLK
5
21
100
AcDbEntity
100
AcDbBlockEnd
0
BLOCK
5
1C
100
AcDbEntity
100
AcDbBlockBegin
2
*PAPER_SPACE
0
ENDBLK
5
1D
100
AcDbEntity
100
AcDbBlockEnd
0
ENDSEC
0
SECTION
2
ENTITIES
0
LWPOLYLINE
5
100
100
AcDbEntity
8
0
100
AcDbPolyline
90
48
70
1
43
0.0
10
7.0000000000000009
20
0
10
7.0000000000000018
20
25
10
11.000000000000004
20
25
10
11.000000000000014
20
0
10
239
20
0
10
239
20
25
10
243
20
25
10
243
20
0
10
246
20
0
10
246
20
25
10
250
20
25
10
250
20
50
10
246
20
50
10
246
20
75
10
250
20
75
10
250
20
100
10
246
20
100
10
246
20
125
10
250
20
125
10
250
20
150
10
246
20
150
10
246
20
175
10
250
20
175
10
250
20
200
10
246
20
200
10
246
20
225
10
250
20
225
10
250
20
250
10
0
20
250
10
0
20
225
10
4
20
225
10
4
20
200
10
0
20
200
10
0
20
175
10
4
20
175
10
4
20
150
10
0
20
150
10
0
20
125
10
4
20
125
10
4
20
100
10
0
20
100
10
0
20
75
10
4
20
75
10
4
20
50
10
0
20
50
10
0
20
25
10
4
20
25
10
3.9999999999999858
20
0
0
LWPOLYLINE
5
101
100
AcDbEntity
8
0
100
AcDbPolyline
90
4
70
1
43
0.0
10
239
20
75
10
243
20
75
10
243
20
50
10
239
20
50
0
LWPOLYLINE
5
102
100
AcDbEntity
8
0
100
AcDbPolyline
90
4
70
1
43
0.0
10
239
20
175
10
243
20
175
10
243
20
150
10
239
20
150
0
LWPOLYLINE
5
103
100
AcDbEntity
8
0
100
AcDbPolyline
90
4
70
1
43
0.0
10
11.000000000000021
20
200
10
7.0000000000000009
20
200
10
7.0000000000000018
20
225
10
11.000000000000023
20
225
0
LWPOLYLINE
5
104
100
AcDbEntity
8
0
100
AcDbPolyline
90
4
70
1
43
0.0
10
11.000000000000011
20
100
10
7.0000000000000009
20
100
10
7.0000000000000018
20
125
10
11.000000000000014
20
125
0
LWPOLYLINE
5
105
100
AcDbEntity
8
0
100
AcDbPolyline
90
4
70
1
43
0.0
10
11.000000000000005
20
50
10
7.0000000000000009
20
50
10
7.0000000000000018
20
75
10
11.000000000000007
20
75
0
LWPOLYLINE
5
106
100
AcDbEntity
8
0
100
AcDbPolyline
90
4
70
1
43
0.0
10
11.000000000000016
20
150
10
7.0000000000000009
20
150
10
7.0000000000000018
20
175
10
11.000000000000018
20
175
0
LWPOLYLINE
5
107
100
AcDbEntity
8
0
100
AcDbPolyline
90
4
70
1
43
0.0
10
239
20
200
10
239
20
225
10
243
20
225
10
243
20
200
0
LWPOLYLINE
5
108
100
AcDbEntity
8
0
100
AcDbPolyline
90
4
70
1
43
0.0
10
239
20
125
10
243
20
125
10
243
20
100
10
239
20
100
0
LWPOLYLINE
5
109
100
AcDbEntity
8
0
100
AcDbPolyline
90
4
70
1
43
0.0
10
143.52546651509863
20
54.93591892223742
10
174.84760177504614
20
54.93591892223742
10
174.84760177504614
20
18
10
143.52546651509863
20
18
0
LWPOLYLINE
5
110
100
AcDbEntity
8
0
100
AcDbPolyline
90
4
70
1
43
0.0
10
166.78568085282478
20
128.07202147242245
10
166.78568085282478
20
157.92562754483222
10
201.11979534652727
20
157.92562754483222
10
201.11979534652727
20
128.07202147242245
0
LWPOLYLINE
5
111
100
AcDbEntity
8
0
100
AcDbPolyline
90
4
70
1
43
0.0
10
100.9372223674948
20
18
10
47.433184413381362
20
18
10
47.433184413381362
20
94.253861039082665
10
100.9372223674948
20
94.253861039082665
0
LWPOLYLINE
5
112
100
AcDbEntity
8
0
100
AcDbPolyline
90
4
70
1
43
0.0
10
114.6844403197595
20
232
10
114.6844403197595
20
208.47848662830683
10
83.614628343411752
20
208.47848662830683
10
83.614628343411752
20
232
0
LWPOLYLINE
5
113
100
AcDbEntity
8
0
100
AcDbPolyline
90
4
70
1
43
0.0
10
160.78568085282478
20
208.47848662830683
10
120.6844403197595
20
208.47848662830683
10
120.6844403197595
20
232
10
160.78568085282481
20
232
0
LWPOLYLINE
5
114
100
AcDbEntity
8
0
100
AcDbPolyline
90
4
70
1
43
0.0
10
47.433184413381362
20
127.9001736860012
10
47.433184413381362
20
202.4784866283068
10
131.0724045594213
20
202.4784866283068
10
131.0724045594213
20
127.9001736860012
0
LWPOLYLINE
5
115
100
AcDbEntity
8
0
100
AcDbPolyline
90
4
70
1
43
0.0
10
106.9372223674948
20
60.935918922237427
10
106.9372223674948
20
122.07202147242245
10
201.11979534652727
20
122.07202147242245
10
201.11979534652727
20
60.935918922237427
0
LWPOLYLINE
5
116
100
AcDbEntity
8
0
100
AcDbPolyline
90
4
70
1
43
0.0
10
137.52546651509863
20
54.93591892223742
10
137.52546651509863
20
18
10
106.9372223674948
20
18
10
106.9372223674948
20
54.93591892223742
0
LWPOLYLINE
5
117
100
AcDbEntity
8
0
100
AcDbPolyline
90
4
70
1
43
0.0
10
232
20
60.935918922237455
10
207.11979534652727
20
60.935918922237434
10
207.11979534652727
20
157.92562754483222
10
232
20
157.92562754483222
0
LWPOLYLINE
5
118
100
AcDbEntity
8
0
100
AcDbPolyline
90
4
70
1
43
0.0
10
18
20
202.4784866283068
10
41.433184413381369
20
202.4784866283068
10
41.433184413381369
20
18
10
18
20
18.000000000000007
0
LWPOLYLINE
5
119
100
AcDbEntity
8
0
100
AcDbPolyline
90
4
70
1
43
0.0
10
166.78568085282478
20
163.92562754483222
10
166.78568085282478
20
232
10
232
20
232
10
232
20
163.92562754483222
0
LWPOLYLINE
5
120
100
AcDbEntity
8
0
100
AcDbPolyline
90
4
70
1
43
0.0
10
160.78568085282481
20
128.07202147242245
10
137.0724045594213
20
128.07202147242245
10
137.0724045594213
20
202.4784866283068
10
160.78568085282481
20
202.4784866283068
0
LWPOLYLINE
5
121
100
AcDbEntity
8
0
100
AcDbPolyline
90
4
70
1
43
0.0
10
18
20
232
10
77.614628343411738
20
232
10
77.614628343411738
20
208.47848662830683
10
18
20
208.47848662830683
0
LWPOLYLINE
5
122
100
AcDbEntity
8
0
100
AcDbPolyline
90
4
70
1
43
0.0
10
47.433184413381362
20
100.25386103908266
10
47.433184413381362
20
121.90017368600121
10
100.9372223674948
20
121.90017368600121
10
100.9372223674948
20
100.25386103908266
0
LWPOLYLINE
5
123
100
AcDbEntity
8
0
100
AcDbPolyline
90
4
70
1
43
0.0
10
180.84760177504617
20
18
10
180.84760177504617
20
54.935918922237448
10
232
20
54.935918922237448
10
232
20
18
0
ENDSEC
0
SECTION
2
OBJECTS
0
DICTIONARY
5
C
100
AcDbDictionary
3
ACAD_GROUP
350
D
3
ACAD_MLINESTYLE
350
17
0
DICTIONARY
5
D
100
AcDbDictionary
0
DICTIONARY
5
1A
330
C
100
AcDbDictionary
0
DICTIONARY
5
17
100
AcDbDictionary
0
ENDSEC
0
EOF
