0
SECTION
2
HEADER
9
$INSUNITS
70
4
9
$ACADVER
1
AC1014
9
$HANDSEED
5
FFFF
0
ENDSEC
0
SECTION
2
TABLES
0
TABLE
2
VPORT
5
8
100
AcDbSymbolTable
0
ENDTAB
0
TABLE
2
LTYPE
5
5
100
AcDbSymbolTable
0
LTYPE
5
14
100
AcDbSymbolTableRecord
100
AcDbLinetypeTableRecord
2
BYBLOCK
70
0
0
LTYPE
5
15
100
AcDbSymbolTableRecord
100
AcDbLinetypeTableRecord
2
BYLAYER
70
0
0
ENDTAB
0
TABLE
2
LAYER
5
2
100
AcDbSymbolTable
70
2
0
LAYER
5
50
100
AcDbSymbolTableRecord
100
AcDbLayerTableRecord
2
0
70
0
6
CONTINUOUS
0
ENDTAB
0
TABLE
2
STYLE
5
3
100
AcDbSymbolTable
70
1
0
STYLE
5
11
100
AcDbSymbolTableRecord
100
AcDbTextStyleTableRecord
2
STANDARD
70
0
0
ENDTAB
0
TABLE
2
VIEW
5
6
100
AcDbSymbolTable
70
0
0
ENDTAB
0
TABLE
2
UCS
5
7
100
AcDbSymbolTable
70
0
0
ENDTAB
0
TABLE
2
APPID
5
9
100
AcDbSymbolTable
70
2
0
APPID
5
12
100
AcDbSymbolTableRecord
100
AcDbRegAppTableRecord
2
ACAD
70
0
0
ENDTAB
0
TABLE
2
DIMSTYLE
5
A
100
AcDbSymbolTable
70
1
0
ENDTAB
0
TABLE
2
BLOCK_RECORD
5
1
100
AcDbSymbolTable
70
1
0
BLOCK_RECORD
5
1F
100
AcDbSymbolTableRecord
100
AcDbBlockTableRecord
2
*MODEL_SPACE
0
BLOCK_RECORD
5
1B
100
AcDbSymbolTableRecord
100
AcDbBlockTableRecord
2
*PAPER_SPACE
0
ENDTAB
0
ENDSEC
0
SECTION
2
BLOCKS
0
BLOCK
5
20
100
AcDbEntity
100
AcDbBlockBegin
2
*MODEL_SPACE
0
ENDBLK
5
21
100
AcDbEntity
100
AcDbBlockEnd
0
BLOCK
5
1C
100
AcDbEntity
100
AcDbBlockBegin
2
*PAPER_SPACE
0
ENDBLK
5
1D
100
AcDbEntity
100
AcDbBlockEnd
0
ENDSEC
0
SECTION
2
ENTITIES
0
LWPOLYLINE
5
100
100
AcDbEntity
8
0
100
AcDbPolyline
90
4
70
1
43
0.0
10
-243
20
50
10
-243
20
75
10
-239.00000000000003
20
75
10
-239.00000000000003
20
50
0
LWPOLYLINE
5
101
100
AcDbEntity
8
0
100
AcDbPolyline
90
4
70
1
43
0.0
10
-239.00000000000003
20
175
10
-239.00000000000003
20
150
10
-243
20
150
10
-243
20
175
0
LWPOLYLINE
5
102
100
AcDbEntity
8
0
100
AcDbPolyline
90
4
70
1
43
0.0
10
-243
20
200
10
-243
20
225
10
-239.00000000000003
20
225
10
-239.00000000000003
20
200
0
LWPOLYLINE
5
103
100
AcDbEntity
8
0
100
AcDbPolyline
90
4
70
1
43
0.0
10
-239.00000000000003
20
125
10
-239.00000000000003
20
100
10
-243
20
100
10
-243
20
125
0
LWPOLYLINE
5
104
100
AcDbEntity
8
0
100
AcDbPolyline
90
4
70
1
43
0.0
10
-69.148692041015451
20
18
10
-69.148692041015465
20
42.977050249310224
10
-18.000000000000004
20
42.977050249310224
10
-18
20
18
0
LWPOLYLINE
5
105
100
AcDbEntity
8
0
100
AcDbPolyline
90
4
70
1
43
0.0
10
-189.37001162771361
20
77.693915044206392
10
-189.37001162771361
20
107.32646750603504
10
-150.02883188589007
20
107.32646750603504
10
-150.02883188589007
20
77.693915044206392
0
LWPOLYLINE
5
106
100
AcDbEntity
8
0
100
AcDbPolyline
90
4
70
1
43
0.0
10
-109.62371159607915
20
18
10
-109.62371159607915
20
71.693915044206392
10
-75.148692041015451
20
71.693915044206392
10
-75.148692041015451
20
18
0
LWPOLYLINE
5
107
100
AcDbEntity
8
0
100
AcDbPolyline
90
4
70
1
43
0.0
10
-102.00137601728574
20
113.03798088088161
10
-102.00137601728574
20
167.80360179951509
10
-45.519593628343891
20
167.80360179951509
10
-45.519593628343891
20
113.03798088088161
0
LWPOLYLINE
5
108
100
AcDbEntity
8
0
100
AcDbPolyline
90
4
70
1
43
0.0
10
-45.519593628343884
20
232
10
-45.519593628343884
20
173.80360179951509
10
-122.57410893276602
20
173.80360179951509
10
-122.57410893276602
20
232
0
LWPOLYLINE
5
109
100
AcDbEntity
8
0
100
AcDbPolyline
90
4
70
1
43
0.0
10
-108.00137601728574
20
113.03798088088161
10
-122.57410893276602
20
113.03798088088161
10
-122.57410893276602
20
167.80360179951509
10
-108.00137601728574
20
167.80360179951509
0
LWPOLYLINE
5
110
100
AcDbEntity
8
0
100
AcDbPolyline
90
4
70
1
43
0.0
10
-69.148692041015451
20
48.977050249310224
10
-69.148692041015451
20
107.03798088088162
10
-18
20
107.03798088088162
10
-18
20
48.977050249310217
0
LWPOLYLINE
5
111
100
AcDbEntity
8
0
100
AcDbPolyline
90
4
70
1
43
0.0
10
-195.37001162771361
20
47.826244859215151
10
-232
20
47.826244859215151
10
-232
20
107.32646750603504
10
-195.37001162771361
20
107.32646750603504
0
LWPOLYLINE
5
112
100
AcDbEntity
8
0
100
AcDbPolyline
90
4
70
1
43
0.0
10
-166.96176887377118
20
41.826244859215144
10
-115.62371159607915
20
41.826244859215144
10
-115.62371159607915
20
18
10
-166.96176887377118
20
18
0
LWPOLYLINE
5
113
100
AcDbEntity
8
0
100
AcDbPolyline
90
4
70
1
43
0.0
10
-115.62371159607915
20
47.826244859215151
10
-189.37001162771361
20
47.826244859215151
10
-189.37001162771361
20
71.693915044206392
10
-115.62371159607915
20
71.693915044206392
0
LWPOLYLINE
5
114
100
AcDbEntity
8
0
100
AcDbPolyline
90
4
70
1
43
0.0
10
-39.519593628343884
20
113.03798088088161
10
-39.519593628343884
20
136.85810431572051
10
-18
20
136.85810431572051
10
-18
20
113.03798088088161
0
LWPOLYLINE
5
115
100
AcDbEntity
8
0
100
AcDbPolyline
90
4
70
1
43
0.0
10
-232
20
232
10
-128.57410893276602
20
232
10
-128.57410893276602
20
113.32646750603503
10
-232
20
113.32646750603503
0
LWPOLYLINE
5
116
100
AcDbEntity
8
0
100
AcDbPolyline
90
4
70
1
43
0.0
10
-39.519593628343877
20
207.54895905220695
10
-39.519593628343877
20
232
10
-18
20
232
10
-18
20
207.54895905220695
0
LWPOLYLINE
5
117
100
AcDbEntity
8
0
100
AcDbPolyline
90
4
70
1
43
0.0
10
-18
20
143.78677213992449
10
-39.519593628343884
20
143.78677213992449
10
-39.519593628343884
20
201.54895905220695
10
-18
20
201.54895905220695
0
LWPOLYLINE
5
118
100
AcDbEntity
8
0
100
AcDbPolyline
90
4
70
1
43
0.0
10
-144.02883188589007
20
77.693915044206392
10
-144.02883188589007
20
107.03798088088162
10
-75.148692041015451
20
107.03798088088162
10
-75.148692041015451
20
77.693915044206392
0
LWPOLYLINE
5
119
100
AcDbEntity
8
0
100
AcDbPolyline
90
4
70
1
43
0.0
10
-172.96176887377118
20
41.826244859215151
10
-172.96176887377118
20
18
10
-232
20
18
10
-232
20
41.826244859215151
0
LWPOLYLINE
5
120
100
AcDbEntity
8
0
100
AcDbPolyline
90
48
70
1
43
0.0
10
-10.999999999999993
20
225
10
-11.000000000000014
20
250
10
-246
20
250
10
-246
20
225
10
-250
20
225
10
-250
20
200
10
-246
20
200
10
-246
20
175
10
-250
20
175
10
-250
20
150
10
-246
20
150
10
-246
20
125
10
-250
20
125
10
-250
20
100
10
-246
20
100
10
-246
20
75
10
-250
20
75
10
-250
20
50
10
-246
20
50
10
-246
20
25
10
-250
20
25
10
-250
20
0
10
-243
20
0
10
-243
20
25
10
-239.00000000000003
20
25
10
-239
20
0
10
0
20
0
10
0
20
25
10
-4
20
25
10
-4
20
50
10
0
20
50
10
0
20
75
10
-4
20
75
10
-4
20
100
10
0
20
100
10
0
20
125
10
-4
20
125
10
-4
20
150
10
0
20
150
10
0
20
175
10
-4
20
175
10
-4
20
200
10
0
20
200
10
0
20
225
10
-4
20
225
10
-3.9999999999999858
20
250
10
-6.9999999999999929
20
250
10
-6.9999999999999929
20
225
0
LWPOLYLINE
5
121
100
AcDbEntity
8
0
100
AcDbPolyline
90
4
70
1
43
0.0
10
-6.9999999999999929
20
50
10
-6.9999999999999929
20
25
10
-10.999999999999993
20
25
10
-10.999999999999993
20
50
0
LWPOLYLINE
5
122
100
AcDbEntity
8
0
100
AcDbPolyline
90
4
70
1
43
0.0
10
-10.999999999999993
20
125
10
-10.999999999999993
20
150
10
-6.9999999999999929
20
150
10
-6.9999999999999929
20
125
0
LWPOLYLINE
5
123
100
AcDbEntity
8
0
100
AcDbPolyline
90
4
70
1
43
0.0
10
-6.9999999999999929
20
200
10
-6.9999999999999929
20
175
10
-10.999999999999993
20
175
10
-10.999999999999993
20
200
0
LWPOLYLINE
5
124
100
AcDbEntity
8
0
100
AcDbPolyline
90
4
70
1
43
0.0
10
-6.9999999999999929
20
100
10
-6.9999999999999929
20
75
10
-10.999999999999993
20
75
10
-10.999999999999993
20
100
0
ENDSEC
0
SECTION
2
OBJECTS
0
DICTIONARY
5
C
100
AcDbDictionary
3
ACAD_GROUP
350
D
3
ACAD_MLINESTYLE
350
17
0
DICTIONARY
5
D
100
AcDbDictionary
0
DICTIONARY
5
1A
330
C
100
AcDbDictionary
0
DICTIONARY
5
17
100
AcDbDictionary
0
ENDSEC
0
EOF
