0
SECTION
2
HEADER
9
$INSUNITS
70
4
9
$ACADVER
1
AC1014
9
$HANDSEED
5
FFFF
0
ENDSEC
0
SECTION
2
TABLES
0
TABLE
2
VPORT
5
8
100
AcDbSymbolTable
0
ENDTAB
0
TABLE
2
LTYPE
5
5
100
AcDbSymbolTable
0
LTYPE
5
14
100
AcDbSymbolTableRecord
100
AcDbLinetypeTableRecord
2
BYBLOCK
70
0
0
LTYPE
5
15
100
AcDbSymbolTableRecord
100
AcDbLinetypeTableRecord
2
BYLAYER
70
0
0
ENDTAB
0
TABLE
2
LAYER
5
2
100
AcDbSymbolTable
70
2
0
LAYER
5
50
100
AcDbSymbolTableRecord
100
AcDbLayerTableRecord
2
0
70
0
6
CONTINUOUS
0
ENDTAB
0
TABLE
2
STYLE
5
3
100
AcDbSymbolTable
70
1
0
STYLE
5
11
100
AcDbSymbolTableRecord
100
AcDbTextStyleTableRecord
2
STANDARD
70
0
0
ENDTAB
0
TABLE
2
VIEW
5
6
100
AcDbSymbolTable
70
0
0
ENDTAB
0
TABLE
2
UCS
5
7
100
AcDbSymbolTable
70
0
0
ENDTAB
0
TABLE
2
APPID
5
9
100
AcDbSymbolTable
70
2
0
APPID
5
12
100
AcDbSymbolTableRecord
100
AcDbRegAppTableRecord
2
ACAD
70
0
0
ENDTAB
0
TABLE
2
DIMSTYLE
5
A
100
AcDbSymbolTable
70
1
0
ENDTAB
0
TABLE
2
BLOCK_RECORD
5
1
100
AcDbSymbolTable
70
1
0
BLOCK_RECORD
5
1F
100
AcDbSymbolTableRecord
100
AcDbBlockTableRecord
2
*MODEL_SPACE
0
BLOCK_RECORD
5
1B
100
AcDbSymbolTableRecord
100
AcDbBlockTableRecord
2
*PAPER_SPACE
0
ENDTAB
0
ENDSEC
0
SECTION
2
BLOCKS
0
BLOCK
5
20
100
AcDbEntity
100
AcDbBlockBegin
2
*MODEL_SPACE
0
ENDBLK
5
21
100
AcDbEntity
100
AcDbBlockEnd
0
BLOCK
5
1C
100
AcDbEntity
100
AcDbBlockBegin
2
*PAPER_SPACE
0
ENDBLK
5
1D
100
AcDbEntity
100
AcDbBlockEnd
0
ENDSEC
0
SECTION
2
ENTITIES
0
LWPOLYLINE
5
100
100
AcDbEntity
8
0
100
AcDbPolyline
90
4
70
1
43
0.0
10
75.782051364220933
20
16.500000000000004
10
75.782051364220933
20
88.382764084260273
10
16.500000000000007
20
88.382764084260273
10
16.500000000000004
20
16.499999999999989
0
LWPOLYLINE
5
101
100
AcDbEntity
8
0
100
AcDbPolyline
90
4
70
1
43
0.0
10
233.49999999999997
20
233.49999999999997
10
160.12169496972507
20
233.49999999999997
10
160.12169496972507
20
164.1682068413383
10
233.49999999999997
20
164.1682068413383
0
LWPOLYLINE
5
102
100
AcDbEntity
8
0
100
AcDbPolyline
90
4
70
1
43
0.0
10
199.90411452691905
20
130.48917723550485
10
199.90411452691905
20
161.16820684133828
10
111.13632016293165
20
161.16820684133828
10
111.13632016293165
20
130.48917723550485
0
LWPOLYLINE
5
103
100
AcDbEntity
8
0
100
AcDbPolyline
90
4
70
1
43
0.0
10
142.89914836193847
20
91.382764084260259
10
142.89914836193847
20
127.48917723550485
10
16.500000000000007
20
127.48917723550485
10
16.500000000000004
20
91.382764084260259
0
LWPOLYLINE
5
104
100
AcDbEntity
8
0
100
AcDbPolyline
90
4
70
1
43
0.0
10
233.49999999999997
20
161.16820684133828
10
202.9041145269191
20
161.16820684133828
10
202.9041145269191
20
91.382764084260259
10
233.49999999999997
20
91.382764084260259
0
LWPOLYLINE
5
105
100
AcDbEntity
8
0
100
AcDbPolyline
90
4
70
1
43
0.0
10
128.47303410706348
20
16.500000000000007
10
128.47303410706348
20
44.153268159184407
10
78.782051364220933
20
44.153268159184407
10
78.782051364220933
20
16.499999999999989
0
LWPOLYLINE
5
106
100
AcDbEntity
8
0
100
AcDbPolyline
90
4
70
1
43
0.0
10
167.45161143560264
20
88.382764084260273
10
78.782051364220933
20
88.382764084260273
10
78.782051364220933
20
47.153268159184414
10
167.45161143560264
20
47.153268159184414
0
LWPOLYLINE
5
107
100
AcDbEntity
8
0
100
AcDbPolyline
90
4
70
1
43
0.0
10
157.12169496972504
20
233.49999999999997
10
111.13632016293165
20
233.49999999999997
10
111.13632016293165
20
164.1682068413383
10
157.12169496972504
20
164.1682068413383
0
LWPOLYLINE
5
108
100
AcDbEntity
8
0
100
AcDbPolyline
90
4
70
1
43
0.0
10
16.500000000000004
20
130.48917723550485
10
108.13632016293167
20
130.48917723550485
10
108.13632016293167
20
233.49999999999997
10
16.500000000000007
20
233.49999999999997
0
LWPOLYLINE
5
109
100
AcDbEntity
8
0
100
AcDbPolyline
90
4
70
1
43
0.0
10
199.90411452691905
20
127.48917723550485
10
145.89914836193847
20
127.48917723550485
10
145.89914836193847
20
91.382764084260259
10
199.90411452691905
20
91.382764084260259
0
LWPOLYLINE
5
110
100
AcDbEntity
8
0
100
AcDbPolyline
90
4
70
1
43
0.0
10
233.49999999999997
20
47.153268159184414
10
233.49999999999997
20
88.382764084260273
10
170.45161143560267
20
88.382764084260273
10
170.45161143560267
20
47.153268159184414
0
LWPOLYLINE
5
111
100
AcDbEntity
8
0
100
AcDbPolyline
90
4
70
1
43
0.0
10
233.49999999999997
20
16.500000000000007
10
233.49999999999997
20
44.153268159184421
10
131.47303410706348
20
44.153268159184407
10
131.47303410706348
20
16.500000000000007
0
LWPOLYLINE
5
112
100
AcDbEntity
8
0
100
AcDbPolyline
90
4
70
1
43
0.0
10
243
20
100
10
239
20
100
10
239
20
75
10
243
20
75
0
LWPOLYLINE
5
113
100
AcDbEntity
8
0
100
AcDbPolyline
90
4
70
1
43
0.0
10
243
20
200
10
239
20
200
10
239
20
175
10
243
20
175
0
LWPOLYLINE
5
114
100
AcDbEntity
8
0
100
AcDbPolyline
90
4
70
1
43
0.0
10
243
20
150
10
239
20
150
10
239
20
125
10
243
20
125
0
LWPOLYLINE
5
115
100
AcDbEntity
8
0
100
AcDbPolyline
90
4
70
1
43
0.0
10
243
20
50
10
239
20
50
10
239
20
25
10
243
20
25
0
LWPOLYLINE
5
116
100
AcDbEntity
8
0
100
AcDbPolyline
90
12
70
1
43
0.0
10
11.000000000000014
20
225
10
11.000000000000014
20
250
10
239
20
250
10
239
20
225
10
243
20
225
10
243
20
250
10
246
20
250
10
246
20
0
10
4
20
0
10
4
20
250
10
6.9999999999999929
20
250
10
6.9999999999999929
20
225
0
LWPOLYLINE
5
117
100
AcDbEntity
8
0
100
AcDbPolyline
90
4
70
1
43
0.0
10
6.9999999999999929
20
25
10
11.000000000000014
20
25
10
11.000000000000014
20
50
10
6.9999999999999929
20
50
0
LWPOLYLINE
5
118
100
AcDbEntity
8
0
100
AcDbPolyline
90
4
70
1
43
0.0
10
6.9999999999999929
20
125
10
11.000000000000014
20
125
10
11.000000000000014
20
150
10
6.9999999999999929
20
150
0
LWPOLYLINE
5
119
100
AcDbEntity
8
0
100
AcDbPolyline
90
4
70
1
43
0.0
10
6.9999999999999929
20
175
10
11.000000000000014
20
175
10
11.000000000000014
20
200
10
6.9999999999999929
20
200
0
LWPOLYLINE
5
120
100
AcDbEntity
8
0
100
AcDbPolyline
90
4
70
1
43
0.0
10
6.9999999999999929
20
75
10
11.000000000000014
20
75
10
11.000000000000014
20
100
10
6.9999999999999929
20
100
0
ENDSEC
0
SECTION
2
OBJECTS
0
DICTIONARY
5
C
100
AcDbDictionary
3
ACAD_GROUP
350
D
3
ACAD_MLINESTYLE
350
17
0
DICTIONARY
5
D
100
AcDbDictionary
0
DICTIONARY
5
1A
330
C
100
AcDbDictionary
0
DICTIONARY
5
17
100
AcDbDictionary
0
ENDSEC
0
EOF
