0
SECTION
2
HEADER
9
$INSUNITS
70
4
9
$ACADVER
1
AC1014
9
$HANDSEED
5
FFFF
0
ENDSEC
0
SECTION
2
TABLES
0
TABLE
2
VPORT
5
8
100
AcDbSymbolTable
0
ENDTAB
0
TABLE
2
LTYPE
5
5
100
AcDbSymbolTable
0
LTYPE
5
14
100
AcDbSymbolTableRecord
100
AcDbLinetypeTableRecord
2
BYBLOCK
70
0
0
LTYPE
5
15
100
AcDbSymbolTableRecord
100
AcDbLinetypeTableRecord
2
BYLAYER
70
0
0
ENDTAB
0
TABLE
2
LAYER
5
2
100
AcDbSymbolTable
70
2
0
LAYER
5
50
100
AcDbSymbolTableRecord
100
AcDbLayerTableRecord
2
0
70
0
6
CONTINUOUS
0
ENDTAB
0
TABLE
2
STYLE
5
3
100
AcDbSymbolTable
70
1
0
STYLE
5
11
100
AcDbSymbolTableRecord
100
AcDbTextStyleTableRecord
2
STANDARD
70
0
0
ENDTAB
0
TABLE
2
VIEW
5
6
100
AcDbSymbolTable
70
0
0
ENDTAB
0
TABLE
2
UCS
5
7
100
AcDbSymbolTable
70
0
0
ENDTAB
0
TABLE
2
APPID
5
9
100
AcDbSymbolTable
70
2
0
APPID
5
12
100
AcDbSymbolTableRecord
100
AcDbRegAppTableRecord
2
ACAD
70
0
0
ENDTAB
0
TABLE
2
DIMSTYLE
5
A
100
AcDbSymbolTable
70
1
0
ENDTAB
0
TABLE
2
BLOCK_RECORD
5
1
100
AcDbSymbolTable
70
1
0
BLOCK_RECORD
5
1F
100
AcDbSymbolTableRecord
100
AcDbBlockTableRecord
2
*MODEL_SPACE
0
BLOCK_RECORD
5
1B
100
AcDbSymbolTableRecord
100
AcDbBlockTableRecord
2
*PAPER_SPACE
0
ENDTAB
0
ENDSEC
0
SECTION
2
BLOCKS
0
BLOCK
5
20
100
AcDbEntity
100
AcDbBlockBegin
2
*MODEL_SPACE
0
ENDBLK
5
21
100
AcDbEntity
100
AcDbBlockEnd
0
BLOCK
5
1C
100
AcDbEntity
100
AcDbBlockBegin
2
*PAPER_SPACE
0
ENDBLK
5
1D
100
AcDbEntity
100
AcDbBlockEnd
0
ENDSEC
0
SECTION
2
ENTITIES
0
LWPOLYLINE
5
100
100
AcDbEntity
8
0
100
AcDbPolyline
90
4
70
1
43
0.0
10
116.18444031975952
20
233.49999999999997
10
116.18444031975952
20
206.97848662830683
10
82.114628343411752
20
206.97848662830683
10
82.114628343411752
20
233.49999999999997
0
LWPOLYLINE
5
101
100
AcDbEntity
8
0
100
AcDbPolyline
90
4
70
1
43
0.0
10
139.02546651509863
20
56.435918922237427
10
139.02546651509863
20
16.5
10
105.4372223674948
20
16.5
10
105.4372223674948
20
56.435918922237427
0
LWPOLYLINE
5
102
100
AcDbEntity
8
0
100
AcDbPolyline
90
4
70
1
43
0.0
10
42.933184413381355
20
203.9784866283068
10
42.933184413381355
20
16.5
10
16.500000000000007
20
16.500000000000021
10
16.500000000000007
20
203.9784866283068
0
LWPOLYLINE
5
103
100
AcDbEntity
8
0
100
AcDbPolyline
90
4
70
1
43
0.0
10
162.28568085282478
20
203.9784866283068
10
162.28568085282478
20
126.57202147242245
10
135.5724045594213
20
126.57202147242245
10
135.5724045594213
20
203.9784866283068
0
LWPOLYLINE
5
104
100
AcDbEntity
8
0
100
AcDbPolyline
90
4
70
1
43
0.0
10
202.61979534652724
20
59.435918922237427
10
105.4372223674948
20
59.435918922237427
10
105.4372223674948
20
123.57202147242246
10
202.61979534652724
20
123.57202147242246
0
LWPOLYLINE
5
105
100
AcDbEntity
8
0
100
AcDbPolyline
90
4
70
1
43
0.0
10
102.4372223674948
20
95.753861039082665
10
102.4372223674948
20
16.5
10
45.933184413381355
20
16.500000000000004
10
45.933184413381355
20
95.753861039082665
0
LWPOLYLINE
5
106
100
AcDbEntity
8
0
100
AcDbPolyline
90
4
70
1
43
0.0
10
162.28568085282478
20
233.49999999999997
10
162.28568085282475
20
206.97848662830683
10
119.1844403197595
20
206.97848662830683
10
119.1844403197595
20
233.49999999999997
0
LWPOLYLINE
5
107
100
AcDbEntity
8
0
100
AcDbPolyline
90
4
70
1
43
0.0
10
79.114628343411738
20
233.49999999999997
10
79.114628343411738
20
206.97848662830683
10
16.500000000000007
20
206.97848662830683
10
16.500000000000004
20
233.49999999999997
0
LWPOLYLINE
5
108
100
AcDbEntity
8
0
100
AcDbPolyline
90
4
70
1
43
0.0
10
233.49999999999997
20
233.49999999999997
10
233.49999999999997
20
162.42562754483225
10
165.28568085282478
20
162.42562754483225
10
165.28568085282478
20
233.49999999999997
0
LWPOLYLINE
5
109
100
AcDbEntity
8
0
100
AcDbPolyline
90
4
70
1
43
0.0
10
233.49999999999997
20
16.5
10
179.34760177504617
20
16.5
10
179.34760177504617
20
56.435918922237455
10
233.49999999999997
20
56.435918922237455
0
LWPOLYLINE
5
110
100
AcDbEntity
8
0
100
AcDbPolyline
90
4
70
1
43
0.0
10
132.57240455942133
20
126.4001736860012
10
45.933184413381355
20
126.4001736860012
10
45.933184413381355
20
203.9784866283068
10
132.57240455942133
20
203.9784866283068
0
LWPOLYLINE
5
111
100
AcDbEntity
8
0
100
AcDbPolyline
90
4
70
1
43
0.0
10
176.34760177504614
20
56.435918922237427
10
176.34760177504614
20
16.5
10
142.02546651509863
20
16.5
10
142.02546651509863
20
56.435918922237427
0
LWPOLYLINE
5
112
100
AcDbEntity
8
0
100
AcDbPolyline
90
4
70
1
43
0.0
10
233.49999999999997
20
59.435918922237448
10
205.61979534652727
20
59.435918922237434
10
205.61979534652727
20
159.42562754483222
10
233.49999999999997
20
159.42562754483222
0
LWPOLYLINE
5
113
100
AcDbEntity
8
0
100
AcDbPolyline
90
4
70
1
43
0.0
10
102.4372223674948
20
123.40017368600121
10
102.4372223674948
20
98.753861039082665
10
45.933184413381355
20
98.753861039082665
10
45.933184413381355
20
123.40017368600121
0
LWPOLYLINE
5
114
100
AcDbEntity
8
0
100
AcDbPolyline
90
4
70
1
43
0.0
10
202.61979534652724
20
159.42562754483222
10
202.61979534652724
20
126.57202147242245
10
165.28568085282478
20
126.57202147242245
10
165.28568085282478
20
159.42562754483222
0
LWPOLYLINE
5
115
100
AcDbEntity
8
0
100
AcDbPolyline
90
12
70
1
43
0.0
10
7.0000000000000009
20
0
10
7.0000000000000018
20
25
10
11.000000000000004
20
25
10
11.000000000000014
20
0
10
239
20
0
10
239
20
25
10
243
20
25
10
243
20
0
10
246
20
0
10
246
20
250
10
4
20
250
10
4
20
0
0
LWPOLYLINE
5
116
100
AcDbEntity
8
0
100
AcDbPolyline
90
4
70
1
43
0.0
10
239
20
75
10
243
20
75
10
243
20
50
10
239
20
50
0
LWPOLYLINE
5
117
100
AcDbEntity
8
0
100
AcDbPolyline
90
4
70
1
43
0.0
10
239
20
175
10
243
20
175
10
243
20
150
10
239
20
150
0
LWPOLYLINE
5
118
100
AcDbEntity
8
0
100
AcDbPolyline
90
4
70
1
43
0.0
10
11.000000000000021
20
200
10
7.0000000000000009
20
200
10
7.0000000000000018
20
225
10
11.000000000000023
20
225
0
LWPOLYLINE
5
119
100
AcDbEntity
8
0
100
AcDbPolyline
90
4
70
1
43
0.0
10
11.000000000000011
20
100
10
7.0000000000000009
20
100
10
7.0000000000000018
20
125
10
11.000000000000014
20
125
0
LWPOLYLINE
5
120
100
AcDbEntity
8
0
100
AcDbPolyline
90
4
70
1
43
0.0
10
11.000000000000005
20
50
10
7.0000000000000009
20
50
10
7.0000000000000018
20
75
10
11.000000000000007
20
75
0
LWPOLYLINE
5
121
100
AcDbEntity
8
0
100
AcDbPolyline
90
4
70
1
43
0.0
10
11.000000000000016
20
150
10
7.0000000000000009
20
150
10
7.0000000000000018
20
175
10
11.000000000000018
20
175
0
LWPOLYLINE
5
122
100
AcDbEntity
8
0
100
AcDbPolyline
90
4
70
1
43
0.0
10
239
20
200
10
239
20
225
10
243
20
225
10
243
20
200
0
LWPOLYLINE
5
123
100
AcDbEntity
8
0
100
AcDbPolyline
90
4
70
1
43
0.0
10
239
20
125
10
243
20
125
10
243
20
100
10
239
20
100
0
ENDSEC
0
SECTION
2
OBJECTS
0
DICTIONARY
5
C
100
AcDbDictionary
3
ACAD_GROUP
350
D
3
ACAD_MLINESTYLE
350
17
0
DICTIONARY
5
D
100
AcDbDictionary
0
DICTIONARY
5
1A
330
C
100
AcDbDictionary
0
DICTIONARY
5
17
100
AcDbDictionary
0
ENDSEC
0
EOF
