0
SECTION
2
HEADER
9
$INSUNITS
70
4
9
$ACADVER
1
AC1014
9
$HANDSEED
5
FFFF
0
ENDSEC
0
SECTION
2
TABLES
0
TABLE
2
VPORT
5
8
100
AcDbSymbolTable
0
ENDTAB
0
TABLE
2
LTYPE
5
5
100
AcDbSymbolTable
0
LTYPE
5
14
100
AcDbSymbolTableRecord
100
AcDbLinetypeTableRecord
2
BYBLOCK
70
0
0
LTYPE
5
15
100
AcDbSymbolTableRecord
100
AcDbLinetypeTableRecord
2
BYLAYER
70
0
0
ENDTAB
0
TABLE
2
LAYER
5
2
100
AcDbSymbolTable
70
2
0
LAYER
5
50
100
AcDbSymbolTableRecord
100
AcDbLayerTableRecord
2
0
70
0
6
CONTINUOUS
0
ENDTAB
0
TABLE
2
STYLE
5
3
100
AcDbSymbolTable
70
1
0
STYLE
5
11
100
AcDbSymbolTableRecord
100
AcDbTextStyleTableRecord
2
STANDARD
70
0
0
ENDTAB
0
TABLE
2
VIEW
5
6
100
AcDbSymbolTable
70
0
0
ENDTAB
0
TABLE
2
UCS
5
7
100
AcDbSymbolTable
70
0
0
ENDTAB
0
TABLE
2
APPID
5
9
100
AcDbSymbolTable
70
2
0
APPID
5
12
100
AcDbSymbolTableRecord
100
AcDbRegAppTableRecord
2
ACAD
70
0
0
ENDTAB
0
TABLE
2
DIMSTYLE
5
A
100
AcDbSymbolTable
70
1
0
ENDTAB
0
TABLE
2
BLOCK_RECORD
5
1
100
AcDbSymbolTable
70
1
0
BLOCK_RECORD
5
1F
100
AcDbSymbolTableRecord
100
AcDbBlockTableRecord
2
*MODEL_SPACE
0
BLOCK_RECORD
5
1B
100
AcDbSymbolTableRecord
100
AcDbBlockTableRecord
2
*PAPER_SPACE
0
ENDTAB
0
ENDSEC
0
SECTION
2
BLOCKS
0
BLOCK
5
20
100
AcDbEntity
100
AcDbBlockBegin
2
*MODEL_SPACE
0
ENDBLK
5
21
100
AcDbEntity
100
AcDbBlockEnd
0
BLOCK
5
1C
100
AcDbEntity
100
AcDbBlockBegin
2
*PAPER_SPACE
0
ENDBLK
5
1D
100
AcDbEntity
100
AcDbBlockEnd
0
ENDSEC
0
SECTION
2
ENTITIES
0
LWPOLYLINE
5
100
100
AcDbEntity
8
0
100
AcDbPolyline
90
4
70
1
43
0.0
10
-209.50494172863361
20
233.49999999999997
10
-209.50494172863361
20
149.67874715527469
10
-164.98204233495625
20
149.67874715527469
10
-164.98204233495625
20
233.49999999999997
0
LWPOLYLINE
5
101
100
AcDbEntity
8
0
100
AcDbPolyline
90
4
70
1
43
0.0
10
-66.936243547601379
20
174.25121569721315
10
-66.936243547601379
20
137.034253790896
10
-16.500000000000007
20
137.034253790896
10
-16.500000000000004
20
174.25121569721315
0
LWPOLYLINE
5
102
100
AcDbEntity
8
0
100
AcDbPolyline
90
4
70
1
43
0.0
10
-161.98204233495619
20
56.303827667725372
10
-89.023309697521015
20
56.303827667725372
10
-89.023309697521015
20
114.94718771744954
10
-161.98204233495619
20
114.94718767149374
0
LWPOLYLINE
5
103
100
AcDbEntity
8
0
100
AcDbPolyline
90
4
70
1
43
0.0
10
-16.500000000000007
20
16.500000000000004
10
-16.500000000000007
20
86.561081982546781
10
-38.430612223363752
20
86.561081982546781
10
-38.430612223363752
20
16.500000000000007
0
LWPOLYLINE
5
104
100
AcDbEntity
8
0
100
AcDbPolyline
90
4
70
1
43
0.0
10
-88.860561004403493
20
16.500000000000007
10
-88.860561004403493
20
53.303827667725372
10
-109.97391284720926
20
53.303827667725372
10
-109.97391284720926
20
16.500000000000007
0
LWPOLYLINE
5
105
100
AcDbEntity
8
0
100
AcDbPolyline
90
4
70
1
43
0.0
10
-41.430612223363767
20
16.500000000000004
10
-41.430612223363767
20
86.561081982546781
10
-85.860561004403507
20
86.561081982546781
10
-85.860561004403507
20
16.500000000000007
0
LWPOLYLINE
5
106
100
AcDbEntity
8
0
100
AcDbPolyline
90
4
70
1
43
0.0
10
-233.49999999999997
20
133.13893421989849
10
-212.50494172863367
20
133.13893421989849
10
-212.50494172863367
20
233.49999999999997
10
-233.49999999999997
20
233.49999999999997
0
LWPOLYLINE
5
107
100
AcDbEntity
8
0
100
AcDbPolyline
90
4
70
1
43
0.0
10
-161.98204233495619
20
117.94718767149374
10
-69.936243547601379
20
117.94718772947223
10
-69.936243547601379
20
174.25121569721315
10
-161.98204233495619
20
174.25121569721315
0
LWPOLYLINE
5
108
100
AcDbEntity
8
0
100
AcDbPolyline
90
4
70
1
43
0.0
10
-161.98204233495619
20
220.22011815960252
10
-161.98204233495619
20
177.25121569721321
10
-83.873495227336832
20
177.25121569721321
10
-83.873495227336832
20
220.22011815960252
0
LWPOLYLINE
5
109
100
AcDbEntity
8
0
100
AcDbPolyline
90
4
70
1
43
0.0
10
-16.500000000000007
20
117.94718776313105
10
-16.500000000000004
20
134.03425376037058
10
-66.936243547601379
20
134.03425382142149
10
-66.936243547601379
20
117.94718773136191
0
LWPOLYLINE
5
110
100
AcDbEntity
8
0
100
AcDbPolyline
90
4
70
1
43
0.0
10
-209.50494172863361
20
56.303827667725358
10
-164.98204233495625
20
56.303827667725358
10
-164.98204233495625
20
146.67874715527469
10
-209.50494172863361
20
146.67874715527469
0
LWPOLYLINE
5
111
100
AcDbEntity
8
0
100
AcDbPolyline
90
4
70
1
43
0.0
10
-233.49999999999997
20
16.500000000000007
10
-212.50494172863367
20
16.500000000000004
10
-212.50494172863367
20
130.13893421989852
10
-233.49999999999997
20
130.13893421989852
0
LWPOLYLINE
5
112
100
AcDbEntity
8
0
100
AcDbPolyline
90
4
70
1
43
0.0
10
-86.023309697521029
20
114.94718771933921
10
-86.023309697521029
20
89.561081982546767
10
-16.500000000000007
20
89.561081982546767
10
-16.500000000000004
20
114.94718776313107
0
LWPOLYLINE
5
113
100
AcDbEntity
8
0
100
AcDbPolyline
90
4
70
1
43
0.0
10
-112.97391284720925
20
16.500000000000007
10
-112.97391284720925
20
53.303827667725372
10
-209.50494172863361
20
53.303827667725372
10
-209.50494172863361
20
16.500000000000007
0
LWPOLYLINE
5
114
100
AcDbEntity
8
0
100
AcDbPolyline
90
4
70
1
43
0.0
10
-54.827866871229901
20
233.49999999999997
10
-80.873495227336832
20
233.49999999999997
10
-80.873495227336832
20
177.25121569721321
10
-54.827866871229901
20
177.25121569721321
0
LWPOLYLINE
5
115
100
AcDbEntity
8
0
100
AcDbPolyline
90
4
70
1
43
0.0
10
-16.500000000000007
20
233.49999999999997
10
-51.827866871229901
20
233.49999999999997
10
-51.827866871229901
20
177.25121569721321
10
-16.500000000000007
20
177.25121569721321
0
LWPOLYLINE
5
116
100
AcDbEntity
8
0
100
AcDbPolyline
90
4
70
1
43
0.0
10
-161.98204233495619
20
233.49999999999997
10
-161.98204233495619
20
223.22011815960255
10
-83.873495227336832
20
223.22011815960255
10
-83.873495227336832
20
233.49999999999997
0
LWPOLYLINE
5
117
100
AcDbEntity
8
0
100
AcDbPolyline
90
40
70
1
43
0.0
10
-10.999999999999993
20
175
10
-6.9999999999999929
20
175
10
-6.9999999999999929
20
150
10
-10.999999999999993
20
150
10
-10.999999999999993
20
125
10
-6.9999999999999929
20
125
10
-6.9999999999999929
20
100
10
-10.999999999999993
20
100
10
-10.999999999999993
20
75
10
-6.9999999999999929
20
75
10
-6.9999999999999929
20
50
10
-10.999999999999993
20
50
10
-10.999999999999993
20
25
10
-6.9999999999999929
20
25
10
-6.9999999999999929
20
0
10
-239
20
0
10
-239.00000000000003
20
25
10
-243
20
25
10
-243.00000000000006
20
50
10
-239.00000000000003
20
50
10
-239.00000000000003
20
75
10
-243
20
75
10
-243.00000000000006
20
100
10
-239.00000000000003
20
100
10
-239.00000000000003
20
125
10
-243
20
125
10
-243
20
150
10
-239.00000000000003
20
150
10
-239.00000000000003
20
175
10
-243
20
175
10
-243
20
200
10
-239.00000000000003
20
200
10
-239.00000000000003
20
225
10
-243
20
225
10
-243
20
250
10
-11.000000000000007
20
250
10
-10.999999999999993
20
225
10
-6.9999999999999929
20
225
10
-6.9999999999999929
20
200
10
-10.999999999999993
20
200
0
ENDSEC
0
SECTION
2
OBJECTS
0
DICTIONARY
5
C
100
AcDbDictionary
3
ACAD_GROUP
350
D
3
ACAD_MLINESTYLE
350
17
0
DICTIONARY
5
D
100
AcDbDictionary
0
DICTIONARY
5
1A
330
C
100
AcDbDictionary
0
DICTIONARY
5
17
100
AcDbDictionary
0
ENDSEC
0
EOF
